<svg width="16" height="16" viewBox="0 0 16 16" fill="none" xmlns="http://www.w3.org/2000/svg">
<path fill-rule="evenodd" clip-rule="evenodd" d="M2.22224 7.25926C2.22224 4.47738 4.47739 2.22222 7.25928 2.22222C10.0412 2.22222 12.2963 4.47738 12.2963 7.25926C12.2963 8.61254 11.7626 9.84115 10.8942 10.7462C10.8671 10.7676 10.841 10.7908 10.8159 10.8159C10.7909 10.841 10.7677 10.8671 10.7462 10.8942C9.84117 11.7626 8.61256 12.2963 7.25928 12.2963C4.47739 12.2963 2.22224 10.0412 2.22224 7.25926ZM11.4086 12.6657C10.2595 13.549 8.82069 14.074 7.25928 14.074C3.49555 14.074 0.444458 11.0229 0.444458 7.25926C0.444458 3.49554 3.49555 0.444443 7.25928 0.444443C11.0229 0.444443 14.0741 3.49554 14.0741 7.25926C14.0741 8.82067 13.549 10.2595 12.6657 11.4086L15.2952 14.0381C15.6423 14.3852 15.6423 14.9481 15.2952 15.2952C14.9481 15.6423 14.3853 15.6423 14.0381 15.2952L11.4086 12.6657Z" fill="#40494D"/>
</svg>
